# xmcd
#
# Track frame offsets: 
#        150
#        10004
#        20810
#        30106
#        39722
#        53525
#        67096
#        77158
#        87918
#        97378
#
# Disc length: 1410 seconds
#
# Revision: 0
# Processed by: cddbd v1.5.2PL0 Copyright (c) Steve Scherf et al.
# Submitted via: ExactAudioCopy v0.95b3
#
DISCID=7805800a
DTITLE=The Stanley Brothers - Bully Of The Town
DYEAR=2003
DGENRE=Bluegrass
TTITLE0=Mama Don't Allow
TTITLE1=Weepin' Willow
TTITLE2=Careless Love
TTITLE3=Chickie's Old Gray Mule
TTITLE4=Bully Of The Town
TTITLE5=How Bad Do I Feel
TTITLE6=Back Up And Push
TTITLE7=How You've Tortured My Mind
TTITLE8=Old Rattler
TTITLE9=I'm Bound To Ride
EXTD=
EXTT0=
EXTT1=
EXTT2=
EXTT3=
EXTT4=
EXTT5=
EXTT6=
EXTT7=
EXTT8=
EXTT9=
PLAYORDER=
